<svg xmlns="http://www.w3.org/2000/svg" xmlns:xlink="http://www.w3.org/1999/xlink" viewBox="0 0 430 430" width="430" height="430" style="width: 100%; height: 100%; transform: translate3d(0px, 0px, 0px); content-visibility: visible;" preserveAspectRatio="xMidYMid meet"><defs><clipPath id="__lottie_element_10"><rect width="430" height="430" x="0" y="0"/></clipPath><clipPath id="__lottie_element_12"><path d="M0,0 L430,0 L430,430 L0,430z"/></clipPath></defs><g clip-path="url(#__lottie_element_10)"><g clip-path="url(#__lottie_element_12)" style="display: block;" transform="matrix(1,0,0,1,0,0)" opacity="1"><g style="display: block;" transform="matrix(0.9999994039535522,0,0,1.0000005960464478,-34.999847412109375,-33.27423095703125)" opacity="1"><g opacity="1" transform="matrix(1,0,0,1,250,283.6650085449219)"><path class="quaternary" fill="rgb(75,179,253)" fill-opacity="1" d=" M86.85099792480469,-116.5780029296875 C86.85099792480469,-86.91300201416016 63.78200149536133,-54.82400131225586 53.9109992980957,-35.257999420166016 C52.5620002746582,-32.577999114990234 51.904998779296875,-30.632999420166016 51.143001556396484,-28.364999771118164 C51.178001403808594,-28.364999771118164 51.22200012207031,-28.356000900268555 51.25699996948242,-28.347000122070312 C84.44300079345703,-21.621000289916992 118.91999816894531,8.272000312805176 118.91999816894531,43.44499969482422 C118.91999816894531,43.44499969482422 119.03600311279297,71.91999816894531 119.03600311279297,71.91999816894531 C119.13999938964844,97.55699920654297 99.36199951171875,118.21499633789062 73.77400207519531,119.80699920654297 C73.77400207519531,119.80699920654297 72.0459976196289,119.91400146484375 72.0459976196289,119.91400146484375 C65.0999984741211,120.71099853515625 58.29499816894531,122.48899841308594 51.84000015258789,125.18699645996094 C35.189998626708984,132.14999389648438 17.49799919128418,135.6269989013672 -0.20200000703334808,135.6269989013672 C-17.79800033569336,135.6269989013672 -35.402000427246094,132.18499755859375 -51.972999572753906,125.3010025024414 C-51.972999572753906,125.3010025024414 -52.14799880981445,125.22200012207031 -52.14799880981445,125.22200012207031 C-58.882999420166016,122.4280014038086 -65.97699737548828,120.58000183105469 -73.22899627685547,119.74800109863281 C-98.56800079345703,118.17900085449219 -118.51599884033203,97.90699768066406 -118.75900268554688,72.5199966430664 C-118.75900268554688,72.5199966430664 -119.03700256347656,43.44499969482422 -119.03700256347656,43.44499969482422 C-119.03700256347656,8.244999885559082 -84.59600067138672,-22.083999633789062 -51.367000579833984,-28.792999267578125 C-51.367000579833984,-28.792999267578125 -51.358001708984375,-28.792999267578125 -51.358001708984375,-28.792999267578125 C-51.323001861572266,-28.802000045776367 -51.28799819946289,-28.81100082397461 -51.25299835205078,-28.81100082397461 C-52.00600051879883,-31.079999923706055 -52.5989990234375,-32.577999114990234 -53.948001861572266,-35.257999420166016 C-63.810001373291016,-54.82400131225586 -86.88899993896484,-86.91300201416016 -86.88899993896484,-116.5780029296875 C-86.88899993896484,-116.5780029296875 4.681000232696533,-138.44500732421875 4.681000232696533,-138.44500732421875 C4.681000232696533,-138.44500732421875 86.85099792480469,-116.5780029296875 86.85099792480469,-116.5780029296875z"/></g><g style="mix-blend-mode: multiply;" opacity="0.5" transform="matrix(1,0,0,1,183.50100708007812,329.83599853515625)"><path class="quaternary" fill="rgb(75,179,253)" fill-opacity="0.5" d=" M15.246000289916992,-74.98200225830078 C15.211000442504883,-74.98200225830078 15.175999641418457,-74.9739990234375 15.140999794006348,-74.96499633789062 C15.140999794006348,-74.96499633789062 15.131999969482422,-74.96499633789062 15.131999969482422,-74.96499633789062 C-18.097000122070312,-68.25599670410156 -52.53799819946289,-37.926998138427734 -52.53799819946289,-2.7269999980926514 C-52.53799819946289,-2.7269999980926514 -52.2599983215332,26.349000930786133 -52.2599983215332,26.349000930786133 C-52.02399826049805,51.00699996948242 -33.191001892089844,70.79900360107422 -8.89900016784668,73.38899993896484 C-21.277999877929688,64.16799926757812 -29.489999771118164,49.590999603271484 -29.643999099731445,32.45899963378906 C-29.643999099731445,32.45899963378906 -29.92099952697754,1.6130000352859497 -29.92099952697754,1.6130000352859497 C-29.92099952697754,-35.72999954223633 3.7760000228881836,-68.70899963378906 52.53799819946289,-60.23500061035156 C52.53799819946289,-60.23500061035156 15.246000289916992,-74.98200225830078 15.246000289916992,-74.98200225830078z"/></g><g opacity="1" transform="matrix(1,0,0,1,249.9810028076172,211.0500030517578)"><path class="secondary" fill="rgb(58,51,71)" fill-opacity="1" d=" M-51.23400115966797,43.803001403808594 C-51.98699951171875,41.534000396728516 -52.58000183105469,40.0369987487793 -53.92900085449219,37.356998443603516 C-63.79100036621094,17.791000366210938 -86.87000274658203,-14.29800033569336 -86.87000274658203,-43.9630012512207 C-86.87000274658203,-43.9630012512207 4.699999809265137,-65.83100128173828 4.699999809265137,-65.83100128173828 C4.699999809265137,-65.83100128173828 86.87000274658203,-43.9630012512207 86.87000274658203,-43.9630012512207 C86.87000274658203,-14.29800033569336 63.80099868774414,17.791000366210938 53.93000030517578,37.356998443603516 C52.58100128173828,40.0369987487793 51.92399978637695,41.981998443603516 51.1619987487793,44.25 C51.196998596191406,44.25 51.24100112915039,44.257999420166016 51.2760009765625,44.266998291015625 C51.2760009765625,44.266998291015625 -0.3959999978542328,63.625 -0.3959999978542328,63.625 C-0.3959999978542328,63.625 -51.23400115966797,43.803001403808594 -51.23400115966797,43.803001403808594z"/></g><g opacity="1" transform="matrix(1,0,0,1,249.94900512695312,257.0039978027344)"><path class="tertiary" fill="rgb(249,201,192)" fill-opacity="1" d=" M29.66900062561035,-20.32200050354004 C29.66900062561035,-20.32200050354004 29.66900062561035,-2.3940000534057617 29.66900062561035,-2.3940000534057617 C29.66900062561035,5.763999938964844 -0.31700000166893005,18.010000228881836 -0.31700000166893005,18.010000228881836 C-0.31700000166893005,18.010000228881836 -29.761999130249023,4.831999778747559 -29.66900062561035,-2.3940000534057617 C-29.66900062561035,-2.3940000534057617 -29.66900062561035,-20.31800079345703 -29.66900062561035,-20.31800079345703"/></g><g style="mix-blend-mode: multiply;" opacity="0.5" transform="matrix(1,0,0,1,197.72500610351562,409.4989929199219)"><path class="secondary" fill="rgb(58,51,71)" fill-opacity="0.5" d=" M0.12800000607967377,-0.6129999756813049"/></g><g style="mix-blend-mode: multiply;" opacity="0.5" transform="matrix(1,0,0,1,321.9179992675781,404.1910095214844)"><path class="secondary" fill="rgb(58,51,71)" fill-opacity="0.5" d=" M0.12800000607967377,-0.6129999756813049"/></g><g style="mix-blend-mode: multiply;" opacity="0.5" transform="matrix(1,0,0,1,249.94900512695312,253.14199829101562)"><path class="tertiary" fill="rgb(249,201,192)" fill-opacity="1" d=" M29.66900062561035,-14.972000122070312 C29.66900062561035,-14.972000122070312 29.66900062561035,-16.459999084472656 29.66900062561035,-16.459999084472656 C29.66900062561035,-16.459999084472656 -29.66900062561035,-16.45599937438965 -29.66900062561035,-16.45599937438965 C-29.66900062561035,-16.45599937438965 -29.66900062561035,1.468000054359436 -29.66900062561035,1.468000054359436 C-29.66900062561035,5.7179999351501465 -21.621999740600586,11.699999809265137 -13.90999984741211,16.459999084472656 C-13.694000244140625,16.434999465942383 -13.479999542236328,16.42099952697754 -13.263999938964844,16.39299964904785 C-13.263999938964844,16.39299964904785 -13.263999938964844,16.39299964904785 -13.263999938964844,16.39299964904785 C6.355999946594238,13.880000114440918 22.266000747680664,1.4869999885559082 29.66900062561035,-14.972000122070312z"/></g><g opacity="1" transform="matrix(1,0,0,1,249.94500732421875,169.2949981689453)"><path class="tertiary" fill="rgb(249,201,192)" fill-opacity="1" d=" M-1.6990000009536743,-78.84100341796875 C-1.6990000009536743,-78.84100341796875 1.6990000009536743,-78.84100341796875 1.6990000009536743,-78.84100341796875 C31.243999481201172,-78.84100341796875 54.90299987792969,-54.345001220703125 53.875999450683594,-24.81800079345703 C53.875999450683594,-24.81800079345703 52.17599868774414,26.242000579833984 52.17599868774414,26.242000579833984 C51.198001861572266,54.35200119018555 28.12700080871582,76.63500213623047 0,76.63500213623047 C0,76.63500213623047 0,76.63500213623047 0,76.63500213623047 C-28.12700080871582,76.63500213623047 -51.198001861572266,54.35200119018555 -52.17599868774414,26.242000579833984 C-52.17599868774414,26.242000579833984 -53.875999450683594,-24.81800079345703 -53.875999450683594,-24.81800079345703 C-54.90299987792969,-54.345001220703125 -31.243999481201172,-78.84100341796875 -1.6990000009536743,-78.84100341796875z"/></g><g opacity="1" transform="matrix(1,0,0,1,250.0290069580078,126.06400299072266)"><path class="quaternary" fill="rgb(75,179,253)" fill-opacity="1" d=" M86.4990005493164,47.21500015258789 C37.9370002746582,24.22800064086914 -36.86800003051758,24.22800064086914 -86.59400177001953,47.21500015258789 C-93.77799987792969,36.86000061035156 -65.21299743652344,-16.871000289916992 -45.55099868774414,-34.340999603271484 C-33.02199935913086,-45.4739990234375 -16.851999282836914,-51.625999450683594 -0.09099999815225601,-51.625999450683594 C-0.09099999815225601,-51.625999450683594 -0.09099999815225601,-51.625999450683594 -0.09099999815225601,-51.625999450683594 C16.670000076293945,-51.625999450683594 32.840999603271484,-45.4739990234375 45.369998931884766,-34.340999603271484 C65.03199768066406,-16.871000289916992 93.97599792480469,39.433998107910156 86.4990005493164,47.21500015258789z"/></g><g style="mix-blend-mode: multiply;" opacity="0.5" transform="matrix(1,0,0,1,212.00399780273438,126.06400299072266)"><g opacity="1" transform="matrix(1,0,0,1,0,0)"><path class="quaternary" fill="rgb(75,179,253)" fill-opacity="0.5" d=" M18.822999954223633,-34.340999603271484 C28.023000717163086,-42.51599884033203 39.189998626708984,-47.992000579833984 51.10900115966797,-50.332000732421875 C46.79600143432617,-51.17900085449219 42.38800048828125,-51.625999450683594 37.933998107910156,-51.625999450683594 C37.933998107910156,-51.625999450683594 37.933998107910156,-51.625999450683594 37.933998107910156,-51.625999450683594 C21.17300033569336,-51.625999450683594 5.001999855041504,-45.4739990234375 -7.5269999504089355,-34.340999603271484 C-27.18899917602539,-16.871000289916992 -56.263999938964844,37.472999572753906 -48.56999969482422,47.21500015258789 C-41.07899856567383,43.75199890136719 -33.012001037597656,40.81999969482422 -24.55900001525879,38.4010009765625 C-22.090999603271484,19.906999588012695 2.878000020980835,-20.17300033569336 18.822999954223633,-34.340999603271484z"/></g></g></g><g style="display: block;" transform="matrix(0.9999994039535522,0,0,1.0000005960464478,-34.999847412109375,-35.000244140625)" opacity="1"><g opacity="1" transform="matrix(1,0,0,1,250,338.4200134277344)"><path stroke-linecap="round" stroke-linejoin="round" fill-opacity="0" class="primary" stroke="rgb(18,19,49)" stroke-opacity="1" stroke-width="7" d=" M50.69599914550781,-82.01699829101562 C50.73099899291992,-82.01699829101562 50.775001525878906,-82.00900268554688 50.810001373291016,-82 C83.99500274658203,-75.27400207519531 118.91999816894531,-45.93299865722656 118.91999816894531,-10.760000228881836 C118.91999816894531,-10.760000228881836 119.03600311279297,17.715999603271484 119.03600311279297,17.715999603271484 C119.14099884033203,43.35300064086914 99.23400115966797,64.62300109863281 73.64600372314453,66.21499633789062 C73.64600372314453,66.21499633789062 71.91799926757812,66.3219985961914 71.91799926757812,66.3219985961914 C64.9729995727539,67.11900329589844 58.16699981689453,68.89700317382812 51.71200180053711,71.59500122070312 C35.0620002746582,78.55799865722656 17.371000289916992,82.03500366210938 -0.33000001311302185,82.03500366210938 C-17.926000595092773,82.03500366210938 -35.52899932861328,78.59300231933594 -52.099998474121094,71.70899963378906 C-52.099998474121094,71.70899963378906 -52.275001525878906,71.62999725341797 -52.275001525878906,71.62999725341797 C-59.0099983215332,68.83599853515625 -66.1050033569336,66.98799896240234 -73.35700225830078,66.15599822998047 C-73.35700225830078,66.15599822998047 -73.35700225830078,66.15599822998047 -73.35700225830078,66.15599822998047 C-98.6969985961914,64.58699798583984 -118.51599884033203,43.702999114990234 -118.75900268554688,18.31599998474121 C-118.75900268554688,18.31599998474121 -119.03700256347656,-10.760000228881836 -119.03700256347656,-10.760000228881836 C-119.03700256347656,-45.959999084472656 -84.08599853515625,-75.30799865722656 -50.856998443603516,-82.01699829101562 C-50.856998443603516,-82.01699829101562 -50.847999572753906,-82.01699829101562 -50.847999572753906,-82.01699829101562 C-50.8129997253418,-82.0260009765625 -50.77799987792969,-82.03500366210938 -50.74300003051758,-82.03500366210938"/></g><g opacity="1" transform="matrix(1,0,0,1,249.94900512695312,257.5539855957031)"><path stroke-linecap="round" stroke-linejoin="round" fill-opacity="0" class="primary" stroke="rgb(18,19,49)" stroke-opacity="1" stroke-width="7" d=" M29.66900062561035,-20.32200050354004 C29.66900062561035,-20.32200050354004 29.66900062561035,-2.3940000534057617 29.66900062561035,-2.3940000534057617 C29.66900062561035,5.763999938964844 -0.004000000189989805,20.32200050354004 -0.004000000189989805,20.32200050354004 C-0.004000000189989805,20.32200050354004 -29.66900062561035,5.763999938964844 -29.66900062561035,-2.3940000534057617 C-29.66900062561035,-2.3940000534057617 -29.66900062561035,-20.31800079345703 -29.66900062561035,-20.31800079345703"/></g><g opacity="1" transform="matrix(1,0,0,1,249.94500732421875,205.27000427246094)"><path stroke-linecap="round" stroke-linejoin="round" fill-opacity="0" class="primary" stroke="rgb(18,19,49)" stroke-opacity="1" stroke-width="7" d=" M-53.28499984741211,-41.06999969482422 C-53.28499984741211,-41.06999969482422 -52.17499923706055,-9.180000305175781 -52.17499923706055,-9.180000305175781 C-51.685001373291016,4.869999885559082 -45.67499923706055,17.469999313354492 -36.26499938964844,26.559999465942383 C-34.21500015258789,28.540000915527344 -32.005001068115234,30.350000381469727 -29.665000915527344,31.969999313354492 C-21.225000381469727,37.79999923706055 -11.005000114440918,41.209999084472656 -0.004999999888241291,41.209999084472656 C11.005000114440918,41.209999084472656 21.235000610351562,37.79999923706055 29.674999237060547,31.959999084472656 C42.80500030517578,22.8799991607666 51.57500076293945,7.929999828338623 52.17499923706055,-9.180000305175781 C52.17499923706055,-9.180000305175781 53.28499984741211,-41.209999084472656 53.28499984741211,-41.209999084472656"/></g><g opacity="1" transform="matrix(1,0,0,1,249.99000549316406,126.08100128173828)"><path stroke-linecap="round" stroke-linejoin="round" fill-opacity="0" class="primary" stroke="rgb(18,19,49)" stroke-opacity="1" stroke-width="7" d=" M84.1520004272461,48.887001037597656 C35.59000015258789,25.899999618530273 -34.529998779296875,25.899999618530273 -84.25599670410156,48.887001037597656 C-96.26000213623047,41.67399978637695 -65.17400360107422,-14.130999565124512 -45.512001037597656,-31.60099983215332 C-32.983001708984375,-42.73400115966797 -16.812999725341797,-48.887001037597656 -0.052000001072883606,-48.887001037597656 C-0.052000001072883606,-48.887001037597656 -0.052000001072883606,-48.887001037597656 -0.052000001072883606,-48.887001037597656 C16.708999633789062,-48.887001037597656 32.87900161743164,-42.73400115966797 45.40800094604492,-31.60099983215332 C65.06999969482422,-14.130999565124512 96.46900177001953,42.22200012207031 84.1520004272461,48.887001037597656z"/></g><g opacity="1" transform="matrix(1,0,0,1,181.1840057373047,213.11399841308594)"><path stroke-linecap="round" stroke-linejoin="round" fill-opacity="0" class="primary" stroke="rgb(18,19,49)" stroke-opacity="1" stroke-width="7" d=" M18.072999954223633,43.270999908447266 C17.31999969482422,41.00299835205078 16.215999603271484,38.52399826049805 14.866999626159668,35.84400177001953 C5.005000114440918,16.277999877929688 -18.072999954223633,-13.607000350952148 -18.072999954223633,-43.270999908447266"/></g><g opacity="1" transform="matrix(1,0,0,1,318.77398681640625,213.1230010986328)"><path stroke-linecap="round" stroke-linejoin="round" fill-opacity="0" class="primary" stroke="rgb(18,19,49)" stroke-opacity="1" stroke-width="7" d=" M-18.07699966430664,43.27899932861328 C-17.315000534057617,41.01100158691406 -16.211999893188477,38.51499938964844 -14.86299991607666,35.834999084472656 C-4.992000102996826,16.268999099731445 18.07699966430664,-13.614999771118164 18.07699966430664,-43.27899932861328"/></g></g><g style="display: block;" transform="matrix(1,0,0,1,-34.75,-34.09100341796875)" opacity="0.98"><g opacity="1" transform="matrix(1,0,0,1,249.8719940185547,410.62799072265625)"><path class="quinary" fill="rgb(100,110,120)" fill-opacity="1" d=" M83.89700317382812,-12.727999687194824 C83.89700317382812,-12.727999687194824 83.89700317382812,9.727999687194824 83.89700317382812,9.727999687194824 C83.89700317382812,11.385000228881836 82.55400085449219,12.727999687194824 80.89700317382812,12.727999687194824 C80.89700317382812,12.727999687194824 -80.89700317382812,12.727999687194824 -80.89700317382812,12.727999687194824 C-82.55400085449219,12.727999687194824 -83.89700317382812,11.385000228881836 -83.89700317382812,9.727999687194824 C-83.89700317382812,9.727999687194824 -83.89700317382812,-12.727999687194824 -83.89700317382812,-12.727999687194824"/></g><g opacity="1" transform="matrix(1,0,0,1,250,337.6130065917969)"><path class="senary" fill="rgb(235,230,239)" fill-opacity="1" d=" M84.0250015258789,60.2869987487793 C84.0250015258789,60.2869987487793 -84.0250015258789,60.2869987487793 -84.0250015258789,60.2869987487793 C-84.0250015258789,60.2869987487793 -90.46199798583984,-47.58599853515625 -90.46199798583984,-47.58599853515625 C-90.87300109863281,-54.474998474121094 -85.39700317382812,-60.2869987487793 -78.49600219726562,-60.2869987487793 C-78.49600219726562,-60.2869987487793 78.49600219726562,-60.2869987487793 78.49600219726562,-60.2869987487793 C85.39700317382812,-60.2869987487793 90.87300109863281,-54.474998474121094 90.46199798583984,-47.58599853515625 C90.46199798583984,-47.58599853515625 84.0250015258789,60.2869987487793 84.0250015258789,60.2869987487793z"/></g><g style="mix-blend-mode: multiply;" opacity="1" transform="matrix(1,0,0,1,250,332.14801025390625)"><path class="senary" fill="rgb(235,230,239)" fill-opacity="1" d=" M0,-14.652000427246094 C8.08643913269043,-14.652000427246094 14.652000427246094,-8.08643913269043 14.652000427246094,0 C14.652000427246094,8.08643913269043 8.08643913269043,14.652000427246094 0,14.652000427246094 C-8.08643913269043,14.652000427246094 -14.652000427246094,8.08643913269043 -14.652000427246094,0 C-14.652000427246094,-8.08643913269043 -8.08643913269043,-14.652000427246094 0,-14.652000427246094z"/></g><g style="mix-blend-mode: multiply;" opacity="0.5" transform="matrix(1,0,0,1,175.50999450683594,337.6130065917969)"><path class="senary" fill="rgb(235,230,239)" fill-opacity="1" d=" M15.994000434875488,-60.2869987487793 C15.994000434875488,-60.2869987487793 -4.00600004196167,-60.2869987487793 -4.00600004196167,-60.2869987487793 C-10.906999588012695,-60.2869987487793 -16.382999420166016,-54.474998474121094 -15.972000122070312,-47.58599853515625 C-15.972000122070312,-47.58599853515625 -9.53499984741211,60.2869987487793 -9.53499984741211,60.2869987487793 C-9.53499984741211,60.2869987487793 10.46500015258789,60.2869987487793 10.46500015258789,60.2869987487793 C10.46500015258789,60.2869987487793 4.0279998779296875,-47.58599853515625 4.0279998779296875,-47.58599853515625 C3.617000102996826,-54.474998474121094 9.093000411987305,-60.2869987487793 15.994000434875488,-60.2869987487793z"/></g><g style="mix-blend-mode: multiply;" opacity="0.5" transform="matrix(1,0,0,1,177.47500610351562,410.62799072265625)"><path class="quinary" fill="rgb(100,110,120)" fill-opacity="1" d=" M8.5,9.727999687194824 C8.5,9.727999687194824 8.5,-12.727999687194824 8.5,-12.727999687194824 C8.5,-12.727999687194824 -11.5,-12.727999687194824 -11.5,-12.727999687194824 C-11.5,-12.727999687194824 -11.5,9.727999687194824 -11.5,9.727999687194824 C-11.5,11.385000228881836 -10.156999588012695,12.727999687194824 -8.5,12.727999687194824 C-8.5,12.727999687194824 11.5,12.727999687194824 11.5,12.727999687194824 C9.843000411987305,12.727999687194824 8.5,11.385000228881836 8.5,9.727999687194824z"/></g></g><g style="display: block;" transform="matrix(1,0,0,1,-35,-35)" opacity="1"><g opacity="1" transform="matrix(1,0,0,1,0,0)"><g opacity="1" transform="matrix(1,0,0,1,249.8719940185547,411.1789855957031)"><path stroke-linecap="round" stroke-linejoin="round" fill-opacity="0" class="primary" stroke="rgb(18,19,49)" stroke-opacity="1" stroke-width="7" d=" M83.89700317382812,-12.727999687194824 C83.89700317382812,-12.727999687194824 83.89700317382812,12.727999687194824 83.89700317382812,12.727999687194824 C83.89700317382812,12.727999687194824 -83.89700317382812,12.727999687194824 -83.89700317382812,12.727999687194824 C-83.89700317382812,12.727999687194824 -83.89700317382812,-12.727999687194824 -83.89700317382812,-12.727999687194824"/></g><g opacity="1" transform="matrix(1,0,0,1,250,338.16400146484375)"><path stroke-linecap="round" stroke-linejoin="round" fill-opacity="0" class="primary" stroke="rgb(18,19,49)" stroke-opacity="1" stroke-width="7" d=" M84.0250015258789,60.2869987487793 C84.0250015258789,60.2869987487793 -84.0250015258789,60.2869987487793 -84.0250015258789,60.2869987487793 C-84.0250015258789,60.2869987487793 -90.46199798583984,-47.58599853515625 -90.46199798583984,-47.58599853515625 C-90.87300109863281,-54.474998474121094 -85.39700317382812,-60.2869987487793 -78.49600219726562,-60.2869987487793 C-78.49600219726562,-60.2869987487793 78.49600219726562,-60.2869987487793 78.49600219726562,-60.2869987487793 C85.39700317382812,-60.2869987487793 90.87300109863281,-54.474998474121094 90.46199798583984,-47.58599853515625 C90.46199798583984,-47.58599853515625 84.0250015258789,60.2869987487793 84.0250015258789,60.2869987487793z"/></g></g><g opacity="1" transform="matrix(1,0,0,1,250,332.697998046875)"><path stroke-linecap="round" stroke-linejoin="round" fill-opacity="0" class="primary" stroke="rgb(18,19,49)" stroke-opacity="1" stroke-width="7" d=" M14.652000427246094,0 C14.652000427246094,8.092000007629395 8.092000007629395,14.652000427246094 0,14.652000427246094 C-8.092000007629395,14.652000427246094 -14.652000427246094,8.092000007629395 -14.652000427246094,0 C-14.652000427246094,-8.092000007629395 -8.092000007629395,-14.652000427246094 0,-14.652000427246094 C8.092000007629395,-14.652000427246094 14.652000427246094,-8.092000007629395 14.652000427246094,0z"/></g></g></g></g></svg>