<?xml version="1.0" encoding="UTF-8"?>
<!DOCTYPE svg PUBLIC "-//W3C//DTD SVG 1.1//EN" "http://www.w3.org/Graphics/SVG/1.1/DTD/svg11.dtd">
<svg version="1.1" xmlns="http://www.w3.org/2000/svg" xmlns:xlink="http://www.w3.org/1999/xlink" x="0" y="0" width="988" height="840" viewBox="0, 0, 988, 840">
  <defs>
    <linearGradient id="Gradient_1" gradientUnits="userSpaceOnUse" x1="-361.336" y1="195.422" x2="-289.277" y2="178.871" gradientTransform="matrix(3.866, 0, 0, 3.866, 1706.3, -395.642)">
      <stop offset="0" stop-color="#0053B2"/>
      <stop offset="0.488" stop-color="#236FC3"/>
      <stop offset="1" stop-color="#0053B2"/>
    </linearGradient>
    <linearGradient id="Gradient_2" gradientUnits="userSpaceOnUse" x1="165.393" y1="608.878" x2="779.061" y2="608.878">
      <stop offset="0" stop-color="#151414"/>
      <stop offset="0.51" stop-color="#252525"/>
      <stop offset="1" stop-color="#151414"/>
    </linearGradient>
  </defs>
  <g id="Top_hat_Blue">
    <g id="path4384">
      <path d="M174.392,575.803 C-90.576,570.823 -20.145,884.038 271.032,822.927 C380.564,801.13 485.998,733.72 575.78,667.804 C663.185,603.631 747.911,523.826 818.872,480.342 C872.697,447.358 967.675,442.098 977.884,520.583 C892.758,438.551 758.092,606.551 601.61,699.773 C881.128,706.87 993.092,644.332 978.198,522.62 C951.492,450.124 881.133,473.029 819.311,480.857 C777.416,342.434 773.494,173.722 770.8,13.911 C544.72,-3.653 297.148,31.87 74.992,109.171 C133.583,270.571 178.648,428.86 174.392,575.787 z" fill="#0053B2"/>
      <path d="M174.392,575.803 C-90.576,570.823 -20.145,884.038 271.032,822.927 C380.564,801.13 485.998,733.72 575.78,667.804 C663.185,603.631 747.911,523.826 818.872,480.342 C872.697,447.358 967.675,442.098 977.884,520.583 C892.758,438.551 758.092,606.551 601.61,699.773 C881.128,706.87 993.092,644.332 978.198,522.62 C951.492,450.124 881.133,473.029 819.311,480.857 C777.416,342.434 773.494,173.722 770.8,13.911 C544.72,-3.653 297.148,31.87 74.992,109.171 C133.583,270.571 178.648,428.86 174.392,575.787 z" fill-opacity="0" stroke="#000000" stroke-width="8" stroke-linejoin="round"/>
    </g>
    <path d="M314.832,611.03 C355.092,622.687 492.744,595.388 688.445,544.868 C654.068,366.493 761.787,488.893 580.915,17.525 C422.447,25 319.38,48.094 216.694,72.687 z" fill="url(#Gradient_1)" id="path4396"/>
    <g id="path4394">
      <path d="M165.393,708.456 C331.625,725.461 480.5,708.456 575.78,667.804 L779.061,502.752 C560.5,575.787 465.279,593.556 173.669,597.32 C172.206,617.605 165.393,708.456 165.393,708.456 z" fill="url(#Gradient_2)"/>
      <path d="M165.393,708.456 C331.625,725.461 480.5,708.456 575.78,667.804 L779.061,502.752 C560.5,575.787 465.279,593.556 173.669,597.32 C172.206,617.605 165.393,708.456 165.393,708.456 z" fill-opacity="0" stroke="#151515" stroke-width="8"/>
    </g>
    <g id="path4392">
      <path d="M317.303,810.831 C400.046,784.485 500.096,722.355 603.79,648.677 C677.14,596.561 750.391,492.155 872.311,460.357 C915.991,449.859 983.287,459.162 979.379,547.526 C960.495,481.829 895.597,497.135 838.362,529.564 C675.154,630.999 643.161,727.183 317.318,810.831 z" fill="#002744"/>
      <path d="M317.303,810.831 C400.046,784.485 500.096,722.355 603.79,648.677 C677.14,596.561 750.391,492.155 872.311,460.357 C915.991,449.859 983.287,459.162 979.379,547.526 C960.495,481.829 895.597,497.135 838.362,529.564 C675.154,630.999 643.161,727.183 317.318,810.831 z" fill-opacity="0" stroke="#000000" stroke-width="8" stroke-linecap="round"/>
    </g>
    <path d="M174.392,575.787 C174.703,591.504 166.373,698.963 165.393,708.456" fill-opacity="0" stroke="#000000" stroke-width="8" stroke-linecap="round" stroke-linejoin="round"/>
  </g>
</svg>
