<?xml version="1.0" encoding="utf-8"?>

<!-- Uploaded to: SVG Repo, www.svgrepo.com, Generator: SVG Repo Mixer Tools -->
<svg width="30px" height="30px" viewBox="0 0 24 24" xmlns="http://www.w3.org/2000/svg" xmlns:xlink="http://www.w3.org/1999/xlink">
  <defs>
    <polygon id="shield-a" points="8.455 .877 6.063 11.43 0 16.419 2.21 17.919 8.455 12.827 11.295 1.601"/>
    <path id="shield-c" d="M1.24082757,3.43204021 L9.24082757,0.149687264 C9.72726647,-0.0498957548 10.2727335,-0.0498957548 10.7591724,0.149687264 L18.7591724,3.43204021 C19.6808014,3.81017913 20.1836337,4.80892643 19.9385064,5.77448404 L17.331099,16.0450723 C17.2264545,16.4572674 16.9931441,16.8253759 16.6650469,17.0959448 L11.2724543,21.5430036 C10.5335703,22.1523321 9.46642971,22.1523321 8.72754569,21.5430036 L3.3349531,17.0959448 C3.00685591,16.8253759 2.77354552,16.4572674 2.66890103,16.0450723 L0.0614936214,5.77448404 C-0.183633728,4.80892643 0.319198645,3.81017913 1.24082757,3.43204021 Z M2,5.28235294 L4.60740741,15.5529412 L10,20 L15.3925926,15.5529412 L18,5.28235294 L10,2 L2,5.28235294 Z M11,7.49860418 L11,15 C11,15.5522847 10.5522847,16 10,16 C9.44771525,16 9,15.5522847 9,15 L9,6 C9,5.28679018 9.72523878,4.80284733 10.3838218,5.07659283 L14.7619957,6.89641705 C15.2719794,7.108396 15.5135599,7.69366236 15.301581,8.20364606 C15.089602,8.71362975 14.5043357,8.95521033 13.994352,8.74323139 L11,7.49860418 Z"/>
  </defs>
  <g fill="none" fill-rule="evenodd" transform="translate(2 1)">
    <g transform="translate(8 3)">
      <mask id="shield-b" fill="#ffffff">
        <use xlink:href="#shield-a"/>
      </mask>
      <use fill="#D8D8D8" xlink:href="#shield-a"/>
      <g fill="#FFA0A0" mask="url(#shield-b)">
        <rect width="24" height="24" transform="translate(-10 -4)"/>
      </g>
    </g>
    <mask id="shield-d" fill="#ffffff">
      <use xlink:href="#shield-c"/>
    </mask>
    <use fill="#000000" fill-rule="nonzero" xlink:href="#shield-c"/>
    <g fill="#7600FF" mask="url(#shield-d)">
      <rect width="24" height="24" transform="translate(-2 -1)"/>
    </g>
  </g>
</svg>